<?xml version="1.0" encoding="utf-8" ?><svg xmlns="http://www.w3.org/2000/svg" xmlns:xlink="http://www.w3.org/1999/xlink" width="13" height="13"><path fill="currentColor" transform="matrix(1 0 0 1 1.08333 1.08333)" d="M1.0568 9.7766Q2.8635 11.5833 5.4167 11.5833Q7.9698 11.5833 9.7766 9.7766Q11.5833 7.9698 11.5833 5.4167Q11.5833 2.8635 9.7766 1.0568Q7.9698 -0.75 5.4167 -0.75Q2.8635 -0.75 1.0568 1.0568Q-0.75 2.8635 -0.75 5.4167Q-0.75 7.9698 1.0568 9.7766ZM8.7159 8.7159Q7.3485 10.0833 5.4167 10.0833Q3.4848 10.0833 2.1174 8.7159Q0.75 7.3485 0.75 5.4167Q0.75 3.4848 2.1174 2.1174Q3.4848 0.75 5.4167 0.75Q7.3485 0.75 8.7159 2.1174Q10.0833 3.4848 10.0833 5.4167Q10.0833 7.3485 8.7159 8.7159Z" fill-rule="evenodd"/><path fill="currentColor" transform="matrix(1 0 0 1 6.29958 4.06792)" d="M0.1465 3.7965L1.8257 4.7986Q2.091 4.9675 2.3936 4.8817Q2.7007 4.8135 2.854 4.5389Q3.0229 4.2736 2.9372 3.9709Q2.869 3.6639 2.5943 3.5106L0.9152 2.5085Q0.75 2.4106 0.75 2.2208L0.75 0Q0.759 -0.3144 0.5303 -0.5303Q0.3144 -0.759 0 -0.75Q-0.3144 -0.759 -0.5303 -0.5303Q-0.759 -0.3144 -0.75 0L-0.75 2.2208Q-0.75 2.6754 -0.4958 3.1212Q-0.2419 3.5664 0.1465 3.7965Z" fill-rule="evenodd"/></svg>